<?xml version="1.0" encoding="utf-8"?>
<!-- Generator: Adobe Illustrator 22.0.0, SVG Export Plug-In . SVG Version: 6.00 Build 0)  -->
<svg version="1.1" id="Capa_1" xmlns="http://www.w3.org/2000/svg" xmlns:xlink="http://www.w3.org/1999/xlink" x="0px" y="0px"
	 viewBox="0 0 348.4 66.6" style="enable-background:new 0 0 348.4 66.6;" xml:space="preserve">
<style type="text/css">
	.st0{fill:#0d47a1;}
</style>
<g>
	<path class="st0" d="M33.2,47.7c0.1,0.3,0.2,0.7,0.2,1.1c0,0.4,0,0.8,0,1.2c0,1-0.1,1.9-0.3,2.8c-0.2,0.9-0.6,1.6-1.1,2.3
		c-0.5,0.7-1.1,1.2-1.9,1.6c-0.8,0.4-1.8,0.6-3,0.6c-1.1,0-2.3-0.2-3.4-0.7c-1.1-0.5-2.5-1.2-4.1-2.1L2.2,44.4
		c-1.4-1.8-2.1-4.3-2.1-7.3c0-2.3,0.3-4,1-5.3c0.7-1.2,1.6-2.2,2.8-2.9l22.4-13c2.7,0.7,4.5,1.7,5.4,2.9c0.9,1.2,1.4,2.5,1.4,3.9
		c0,1.9-0.5,3.4-1.4,4.4s-2.3,2-4.2,3l-14.3,7.2L33.2,47.7z"/>
	<path class="st0" d="M40.4,18.1c0-2.8,0.5-5.1,1.4-7.1c0.9-2,2.2-3.6,3.9-4.9c1.6-1.3,3.5-2.2,5.7-2.8c2.2-0.6,4.5-0.9,7-0.9
		c4,0,7,0.5,8.9,1.6c1.9,1.1,2.8,2.9,2.8,5.4c0,1.1-0.2,2.1-0.7,2.9c-0.5,0.9-1,1.5-1.5,2c-1-0.3-2.1-0.5-3.2-0.7
		c-1.1-0.2-2.4-0.3-3.9-0.3c-2.3,0-4.2,0.4-5.5,1.2c-1.3,0.8-2,2.2-2,4.1v2.6h13.3c0.3,0.6,0.6,1.3,0.9,2.2c0.3,0.9,0.4,1.9,0.4,3
		c0,1.9-0.4,3.3-1.3,4.1c-0.8,0.8-2,1.3-3.4,1.3h-9.4v25.8c-0.5,0.2-1.4,0.3-2.6,0.5c-1.2,0.2-2.4,0.2-3.6,0.2
		c-1.2,0-2.3-0.1-3.2-0.2c-1-0.2-1.8-0.5-2.4-1c-0.7-0.5-1.2-1.2-1.5-2c-0.4-0.8-0.5-1.9-0.5-3.3V18.1z"/>
	<path class="st0" d="M87.4,57.6c-0.5,0.2-1.4,0.3-2.6,0.5c-1.2,0.2-2.4,0.2-3.6,0.2c-1.2,0-2.3-0.1-3.2-0.2c-1-0.2-1.8-0.5-2.4-1
		c-0.7-0.5-1.2-1.2-1.5-2c-0.4-0.8-0.5-1.9-0.5-3.3V27.4c0-1.2,0.2-2.3,0.7-3.2c0.5-0.9,1.1-1.7,2-2.4c0.9-0.7,1.9-1.3,3.2-1.9
		c1.3-0.6,2.6-1.1,4.1-1.5c1.5-0.4,3-0.8,4.6-1c1.6-0.2,3.1-0.4,4.7-0.4c2.6,0,4.7,0.5,6.2,1.5c1.5,1,2.3,2.6,2.3,4.9
		c0,0.8-0.1,1.5-0.3,2.2c-0.2,0.7-0.5,1.4-0.8,2c-1.1,0-2.3,0.1-3.5,0.2c-1.2,0.1-2.4,0.3-3.5,0.5C92,28.5,91,28.7,90,29
		c-1,0.2-1.9,0.5-2.6,0.9V57.6z"/>
	<path class="st0" d="M107,18.7c0.5-0.2,1.4-0.3,2.6-0.5c1.2-0.2,2.4-0.2,3.6-0.2c1.2,0,2.3,0.1,3.2,0.2c0.9,0.2,1.8,0.5,2.4,1
		s1.2,1.2,1.5,2c0.4,0.8,0.5,1.9,0.5,3.3V42c0,2.2,0.5,3.8,1.6,4.8c1.1,1,2.7,1.4,4.7,1.4c1.2,0,2.3-0.1,3.1-0.3
		c0.8-0.2,1.4-0.4,1.8-0.7V18.7c0.5-0.2,1.4-0.3,2.6-0.5c1.2-0.2,2.4-0.2,3.6-0.2c1.2,0,2.3,0.1,3.2,0.2c0.9,0.2,1.7,0.5,2.4,1
		s1.2,1.2,1.5,2c0.4,0.8,0.5,1.9,0.5,3.3v24.7c0,2.7-1.1,4.7-3.4,6.1c-1.9,1.2-4.2,2.1-6.8,2.7c-2.6,0.6-5.5,0.9-8.6,0.9
		c-2.9,0-5.6-0.3-8.1-1c-2.5-0.7-4.6-1.7-6.4-3c-1.8-1.4-3.2-3.1-4.2-5.2c-1-2.1-1.5-4.7-1.5-7.8V18.7z"/>
	<path class="st0" d="M152.7,37.9c0-3.6,0.5-6.7,1.6-9.3c1.1-2.6,2.6-4.8,4.5-6.6c1.9-1.7,4.2-3,6.8-3.9c2.6-0.8,5.4-1.3,8.3-1.3
		c1.1,0,2.1,0.1,3.2,0.3c1,0.2,1.9,0.4,2.5,0.7V4.7c0.5-0.2,1.4-0.3,2.6-0.5c1.2-0.2,2.4-0.3,3.7-0.3c1.2,0,2.3,0.1,3.2,0.2
		c0.9,0.2,1.7,0.5,2.4,1s1.1,1.2,1.5,2c0.3,0.8,0.5,1.9,0.5,3.3V49c0,2.6-1.2,4.6-3.6,6.1c-1.6,1-3.6,1.9-6.1,2.7
		c-2.5,0.8-5.4,1.2-8.6,1.2c-3.5,0-6.7-0.5-9.5-1.5c-2.8-1-5.2-2.4-7.1-4.2c-1.9-1.8-3.4-4.1-4.4-6.6
		C153.2,44.1,152.7,41.2,152.7,37.9z M175.8,27.7c-2.9,0-5.2,0.8-6.8,2.5c-1.6,1.7-2.4,4.2-2.4,7.7c0,3.4,0.7,5.9,2.2,7.6
		c1.5,1.7,3.6,2.6,6.3,2.6c1,0,1.9-0.1,2.6-0.4c0.8-0.3,1.4-0.6,1.8-1V28.7C178.6,28,177.3,27.7,175.8,27.7z"/>
	<path class="st0" d="M223,59c-3.2,0-6.2-0.4-8.9-1.3c-2.7-0.9-5.1-2.2-7.2-4c-2-1.8-3.6-4-4.8-6.8c-1.2-2.7-1.8-5.9-1.8-9.5
		c0-3.6,0.6-6.7,1.8-9.2c1.2-2.6,2.7-4.7,4.6-6.3c1.9-1.7,4.1-2.9,6.5-3.7c2.4-0.8,4.9-1.2,7.5-1.2c2.9,0,5.5,0.4,7.9,1.3
		c2.4,0.9,4.4,2.1,6.1,3.6c1.7,1.5,3,3.3,4,5.5c0.9,2.1,1.4,4.4,1.4,6.9c0,1.8-0.5,3.3-1.5,4.2c-1,1-2.5,1.6-4.3,1.9l-20.1,3
		c0.6,1.8,1.8,3.1,3.7,4c1.8,0.9,4,1.3,6.3,1.3c2.2,0,4.3-0.3,6.3-0.9c2-0.6,3.6-1.2,4.8-2c0.9,0.5,1.6,1.3,2.2,2.3
		c0.6,1,0.9,2,0.9,3.1c0,2.4-1.1,4.3-3.4,5.5c-1.7,0.9-3.7,1.5-5.9,1.9C226.9,58.8,224.9,59,223,59z M220.7,27
		c-1.3,0-2.4,0.2-3.4,0.7c-1,0.4-1.7,1-2.3,1.7c-0.6,0.7-1,1.4-1.3,2.3c-0.3,0.8-0.5,1.7-0.5,2.6l13.9-2.3c-0.2-1.1-0.8-2.2-1.8-3.3
		C224.2,27.5,222.7,27,220.7,27z"/>
	<path class="st0" d="M272.9,56.6c-0.8,0.6-1.9,1.1-3.3,1.5c-1.5,0.4-3.1,0.6-5,0.6c-2.1,0-3.9-0.3-5.5-0.8
		c-1.5-0.5-2.6-1.4-3.2-2.6c-0.5-0.9-1.1-2.2-1.8-3.9c-0.7-1.7-1.4-3.5-2.2-5.5c-0.8-2-1.5-4.2-2.4-6.6c-0.8-2.3-1.6-4.6-2.3-6.9
		c-0.7-2.3-1.4-4.5-2-6.6c-0.6-2.1-1.1-4-1.5-5.6c0.8-0.8,1.8-1.4,3.1-2c1.3-0.6,2.7-0.9,4.2-0.9c1.9,0,3.5,0.4,4.7,1.2
		c1.2,0.8,2.1,2.3,2.7,4.4l3.2,12.5c0.6,2.4,1.2,4.7,1.7,6.6c0.5,2,0.9,3.5,1.2,4.6h0.4c1-4,2.1-8.5,3.3-13.3
		c1.1-4.9,2.2-9.7,3.1-14.4c0.9-0.5,2-0.9,3.1-1.1c1.2-0.3,2.3-0.4,3.4-0.4c1.9,0,3.5,0.4,4.8,1.2c1.3,0.8,2,2.2,2,4.2
		c0,0.9-0.2,2.1-0.6,3.8c-0.4,1.7-0.9,3.5-1.5,5.6c-0.6,2.1-1.4,4.3-2.2,6.6c-0.8,2.3-1.7,4.6-2.6,6.8c-0.9,2.2-1.7,4.3-2.6,6.2
		C274.3,53.8,273.5,55.4,272.9,56.6z"/>
	<path class="st0" d="M296,66.3c-0.8,0.1-1.5,0.2-2.2,0.2c-0.7,0-1.4,0-2,0c-2.3,0-4-0.5-5.2-1.5c-1.2-1-1.8-2.6-1.8-4.7
		c0-1.5,0.2-2.9,0.7-4.4c0.4-1.5,0.8-2.8,1.1-3.9l14.3-51.7c0.8-0.1,1.6-0.2,2.3-0.2c0.7,0,1.4,0,2,0c2.2,0,3.9,0.5,5.2,1.4
		c1.3,0.9,1.9,2.4,1.9,4.5c0,1.6-0.2,3.1-0.7,4.5c-0.4,1.4-0.8,2.8-1.2,4.2L296,66.3z"/>
	<path class="st0" d="M315.2,25.4c-0.1-0.3-0.2-0.7-0.2-1.1c0-0.4,0-0.8,0-1.2c0-1,0.1-1.9,0.3-2.8c0.2-0.9,0.6-1.6,1.1-2.3
		c0.5-0.7,1.1-1.2,1.9-1.6c0.8-0.4,1.8-0.6,3-0.6c1.1,0,2.3,0.2,3.4,0.7c1.1,0.5,2.5,1.2,4.1,2.1l17.5,10.1c1.4,1.8,2.1,4.3,2.1,7.3
		c0,2.3-0.3,4-1,5.3c-0.7,1.2-1.6,2.2-2.8,2.9l-22.4,13c-2.7-0.7-4.5-1.7-5.4-2.9c-1-1.2-1.4-2.5-1.4-3.9c0-1.9,0.5-3.4,1.4-4.4
		c0.9-1.1,2.3-2,4.2-3l14.3-7.2L315.2,25.4z"/>
</g>
</svg>
