<?xml version="1.0" encoding="utf-8"?>
<!-- Generator: Adobe Illustrator 22.0.0, SVG Export Plug-In . SVG Version: 6.00 Build 0)  -->
<svg version="1.1" id="Capa_1" xmlns="http://www.w3.org/2000/svg" xmlns:xlink="http://www.w3.org/1999/xlink" x="0px" y="0px"
	 viewBox="0 0 283.5 283.5" style="enable-background:new 0 0 283.5 283.5;" xml:space="preserve">
<style type="text/css">
	.st0{fill:#5B5B5F;}
</style>
<path class="st0" d="M0,0v283.5h283.5V0H0z M277.8,277.8H5.7V5.7h272.1V277.8z"/>
<path class="st0" d="M0,0v236.2h198.2V0H0z M192.5,230.5H5.7V5.7h186.9V230.5z"/>
<path class="st0" d="M0,0v161h98.8V0H0z M93.2,155.4H5.7V5.7h87.5V155.4z"/>
<g>
	<path class="st0" d="M38.7,107.7h-8.5V51h12.3l8,40.7L58,51h11.8v56.7h-8.5V72.1l-7.4,35.6H47l-8.3-35.5V107.7z"/>
</g>
<g>
	<path class="st0" d="M140.3,59.7h-9.1v-8.6h26.7v8.6h-9v48h-8.5V59.7z"/>
</g>
<g>
	<path class="st0" d="M253.2,94.1c0,3.7-1.3,6.9-3.9,9.6c-2.6,2.7-5.8,4-9.5,4h-13.4V51h13.4c3.7,0,6.9,1.3,9.5,4
		c2.6,2.7,3.9,5.8,3.9,9.5V94.1z M234.9,99.2h5.2c1.4,0,2.5-0.5,3.4-1.5c0.9-1,1.4-2.1,1.4-3.5V64.7c0-1.4-0.5-2.5-1.4-3.5
		c-0.9-1-2.1-1.4-3.4-1.4h-5.2V99.2z"/>
</g>
</svg>
