<?xml version="1.0" encoding="utf-8"?>
<!-- Generator: Adobe Illustrator 22.0.0, SVG Export Plug-In . SVG Version: 6.00 Build 0)  -->
<svg version="1.1" id="Capa_1" xmlns="http://www.w3.org/2000/svg" xmlns:xlink="http://www.w3.org/1999/xlink" x="0px" y="0px"
	 viewBox="0 0 1271.4 1401" style="enable-background:new 0 0 1271.4 1401;" xml:space="preserve">
<style type="text/css">
	.st0{fill:url(#SVGID_1_);}
	.st1{fill:url(#SVGID_2_);}
	.st2{fill:url(#SVGID_3_);}
	.st3{fill:#231F1F;}
</style>
<g transform="matrix(.569 0 0 .569 199.451 -82.735)">
	
		<linearGradient id="SVGID_1_" gradientUnits="userSpaceOnUse" x1="-17827.0098" y1="-9717.6963" x2="-16986.3086" y2="-10214.4541" gradientTransform="matrix(0.1187 0 0 0.1187 2148.8557 3482.3723)">
		<stop  offset="0" style="stop-color:#909CA9"/>
		<stop  offset="1" style="stop-color:#EDEDEE"/>
	</linearGradient>
	<path class="st0" d="M1064.5,1276.4l-485.2,158.4l-422.1,186.3l-118.1,31.2c-30.1,28.6-61.6,57.6-95.7,86.9
		c-37.4,32.3-72.2,61.6-99,82.9c-29.7,23.5-73.7,67.5-96.1,95.3c-33.4,41.8-59.8,86.2-71.1,120.3c-20.2,61.6-10.3,123.9,28.6,181.5
		c49.9,73.3,149.3,148.1,265.1,199.1c59,26,158.4,59.4,233.2,78.1c124.3,31.5,364.9,65.6,497.3,70.8c26.8,1.1,62.7,1.1,64.2,0
		c2.9-1.8,23.5-41.1,47.3-89.8c81.4-166.1,140.1-322,172-455.1c19.1-80.7,34.1-188.1,44-315.4c2.6-35.6,3.7-154.8,1.5-195.1
		c-3.3-66-9.2-119.5-18.3-172c-1.5-7.7-1.8-14.7-1.1-15c1.5-1.1,5.9-2.6,65.6-19.8L1064.5,1276.4L1064.5,1276.4L1064.5,1276.4
		L1064.5,1276.4z M953.8,1341.3c4.4,0,16.1,112.6,19.1,183.7c0.7,15,0.4,24.9-0.4,24.9c-2.9,0-62-34.8-104.1-61.2
		c-36.7-23.1-106.3-69.3-117.3-78.1c-3.7-2.6-3.3-2.9,26.8-13.2C828.7,1380.2,949.7,1341.3,953.8,1341.3z M706.6,1422.7
		c3.3,0,11.7,4.8,31.9,17.2c75.5,47.3,178.2,104.5,222.2,123.6c13.6,5.9,15,3.7-16.1,24.9c-66.7,45.5-150,90.2-251.9,135.3
		c-18,8.1-33,14.3-33.4,14.3c-0.7,0,1.5-9.2,4.4-20.2c24.6-91.3,38.5-183.7,39.2-257.8c0.4-36.7,0.4-36.7,3.7-37.8
		C705.9,1422.7,706.2,1422.7,706.6,1422.7L706.6,1422.7z M655.6,1442.1c2.2,2.2,0.7,84.3-2.2,106.7c-6.6,53.5-16.9,103.4-33.7,159.5
		c-4,13.6-7.7,24.9-8.4,25.7c-1.5,1.8-51.7-47.3-68.2-66.4c-28.6-33-51-66-67.5-98.3c-8.4-16.5-21.6-48.8-20.5-49.9
		C460.9,1515.5,654.2,1440.7,655.6,1442.1L655.6,1442.1z M415.8,1536.4c0.4,0,0.7,0,1.1,0.4c0.7,0.7,3.3,6.6,5.5,13.2
		c11.7,31.9,38.1,78.8,60.9,108.9c24.9,33,57.6,68.2,84.7,91.3c8.8,7.3,16.9,14.3,18,15.4c2.2,2.2,2.9,1.8-56.8,24.6
		c-69.3,26.4-144.8,52.8-231.4,80.7c-20.7,6.7-41.3,13.4-62,20.2c-3.3,1.1-2.2-0.7,7.3-15.8c42.9-67.1,108.2-198.8,144.9-291.9
		c6.2-16.1,12.5-32.3,13.6-35.9c1.5-5.1,3.3-7,8.1-9.5C412.1,1537.1,414.7,1536.4,415.8,1536.4L415.8,1536.4z M342.5,1566.8
		c1.1,0.7-17.6,40-35.9,75.9c-35.6,69.3-74.4,137.5-126.5,220.4c-8.8,14.3-17.2,27.5-18.3,29c-1.8,2.6-2.6,1.8-8.4-9.5
		c-12.5-24.6-22.7-56.1-28.2-85.1c-5.5-28.6-4.4-78.5,1.8-109.3c4.8-22.7,4.4-22.4,15.4-27.9C189.2,1636.5,341,1565.3,342.5,1566.8
		L342.5,1566.8z M975,1592.5v15.4c0,81.8-8.8,194-21.6,275.8c-2.2,14.3-4,26-4.4,26.4c0,0-10.6-2.9-23.1-6.6
		c-55-17.2-114.8-42.5-168.7-72.2c-35.6-19.4-87.3-51.3-85.8-52.8c0.4-0.4,15.8-8.4,33.7-18c71.9-37.4,140.8-77.7,200.6-117.7
		c22.4-15,56.1-39.2,63.4-45.8L975,1592.5L975,1592.5z M65.6,1701c1.5,0,1.1,2.9-1.1,16.1c-1.5,9.5-3.3,27.1-4,39.2
		c-2.9,53.5,5.9,93.2,32.3,147.4c7.3,15,13.2,27.5,12.8,27.9c-2.6,2.2-245.3,73.3-321.6,94.2c-22.7,6.2-42.5,11.7-44,12.1
		c-2.6,0.7-2.9,0.4-1.8-5.9c8.4-53.9,49.5-124.3,106.7-183.7c38.1-39.6,68.6-62.7,120.7-92.4c37.4-21.3,95-53.2,99.4-54.6
		C64.9,1701,65.2,1701,65.6,1701L65.6,1701z M637.7,1803.3c0.4-0.4,9.2,4.4,19.8,10.6c78.5,45.5,187.8,87.6,280.9,109.3l8.4,1.8
		l-11.7,6.6c-48.8,27.1-209,93.9-372.9,155.1c-23.8,8.8-47.3,17.6-51.7,19.4c-4.4,1.8-8.4,2.9-8.4,2.6c0-0.4,6.6-13.2,15-29
		c45.8-85.8,92-190.3,115.5-262.9C635.5,1809.9,637.3,1803.7,637.7,1803.3L637.7,1803.3z M579.4,1822.4c0.4,0.4-2.6,8.1-6.2,16.9
		c-31.9,77.4-73.7,161.7-127.3,256.3c-13.6,24.2-24.9,43.6-25.3,43.6c-0.4,0-11.4-6.6-24.6-14.7c-77.7-47.7-146.7-106.3-191.8-163.2
		l-6.6-8.1l33.4-9.2c119.6-32.6,221.1-67.8,322-111.1C567.3,1827.2,579,1822.4,579.4,1822.4z M941.7,1948.9
		C941.7,1948.9,942,1949.3,941.7,1948.9c0.4,8.4-18.3,84-33.7,138.6c-12.8,45.8-23.8,81.8-44,145.2c-8.8,27.9-16.5,51-16.9,51
		c-0.4,0-2.6-0.4-4.8-1.1c-108.9-19.8-206.5-47.3-298.1-84c-25.7-10.3-62.3-26.8-64.5-28.6c-0.7-0.7,21.3-11,49.1-23.1
		c166.9-73,339.9-155.9,399.3-191.4C935.1,1951.1,940.6,1948.9,941.7,1948.9L941.7,1948.9z M105.2,1977.5
		c0.7,0.7-45.8,67.8-111.1,159.2c-22.7,31.9-49.1,69.3-59,83.2c-9.9,13.9-24.9,35.9-33.4,49.1l-15.4,23.8l-16.5-13.9
		c-19.4-16.1-53.2-50.6-68.2-69.7c-31.5-39.2-52.8-80.7-61.2-118.4c-4-17.6-4-26.4-0.4-27.5c5.5-1.5,103.4-24.6,195.1-45.8
		c51-11.7,110-25.7,131.3-30.8C87.6,1981.6,104.8,1977.5,105.2,1977.5L105.2,1977.5z M152.1,1995.5l11.7,13.2
		c52.8,59,106.7,102.7,172,140.8c11.7,6.6,20.5,12.5,19.8,12.8c-2.6,1.8-226.6,81.4-330.4,117.3c-58.3,20.5-106.3,37-106.7,37
		c-0.4,0-3.7-2.2-7.3-4.8l-6.6-4.8l10.6-15.4c34.5-49.9,77.7-104.5,172-218.2L152.1,1995.5L152.1,1995.5z M444.8,2204.9
		c0.4-0.4,16.5,5.5,36.3,12.8c47.7,18,85.4,29.3,136.1,42.2c62.3,15.8,152.6,31.2,205.7,35.6c8.1,0.7,12.5,1.5,11,2.6
		c-2.6,1.5-56.5,19.4-96.1,31.9c-63.1,19.8-255.6,76.6-412.6,121.7c-29,8.4-53.9,15.4-55.4,15.8c-3.7,0.7-15.8-2.6-15.8-4
		c0-0.7,8.8-12.1,19.4-24.6c52.8-63.1,105.2-133.5,148.9-200.2C434.5,2220.3,444.8,2205.3,444.8,2204.9L444.8,2204.9z M380.2,2206.7
		c0.4,0.4-25.7,42.2-71.1,114c-19.4,30.4-41.1,64.9-48.8,77c-7.3,11.7-18.3,30.1-24.6,40.3l-10.6,18.7l-5.5-1.5
		c-13.2-3.7-106-36.3-130.6-46.2c-30.4-12.1-62-26.8-85.4-39.2c-29.3-15.8-66-39.2-63.1-40c0.7-0.4,51-13.9,111.5-30.4
		c160.6-43.6,249.7-68.9,308-87.3C370.7,2208.9,379.9,2206.4,380.2,2206.7L380.2,2206.7z M836.8,2313.8h0.4
		c1.5,3.7-57.9,168.7-79.6,220.8c-4.8,11.7-6.6,14.7-9.2,14.3c-6.2-0.4-92.4-12.5-144.9-20.2c-91.3-13.9-244.6-40.7-283.1-49.5
		l-8.8-1.8l54.6-12.5c117.4-26.4,173.8-40.7,231-58.3c72.2-22,143.8-49.5,216-83.2C824.7,2318.2,834.2,2314.2,836.8,2313.8
		L836.8,2313.8z"/>
	
		<linearGradient id="SVGID_2_" gradientUnits="userSpaceOnUse" x1="-17793.8477" y1="-26171.9863" x2="-17117.3965" y2="-26171.9863" gradientTransform="matrix(0.1187 0 0 0.1187 2148.8557 3482.3723)">
		<stop  offset="0" style="stop-color:#939FAB"/>
		<stop  offset="1" style="stop-color:#DCDEE1"/>
	</linearGradient>
	<path class="st1" d="M564.3,145.4c-8.1-1.1-138.3,45.8-222.2,79.9c-113.3,46.2-201.3,90.2-255.6,128.3C66.3,368,41,393.3,37,403.2
		c-1.5,3.7-2.2,8.1-2.2,12.5l49.1,46.6l117,37.4l278.3,49.9l318.3,54.6l3.3-27.5c-1.1,0-1.8-0.4-2.9-0.4l-41.8-6.6l-8.4-15
		c-43.3-76.3-90.9-170.9-118.8-234.7c-21.6-49.5-42.2-106.7-53.5-147.8C569.1,147.3,568.4,145.8,564.3,145.4L564.3,145.4
		L564.3,145.4L564.3,145.4z M558.4,164.1h0.4c0.4,0.4,1.8,10.6,3.3,22.7c6.2,51.3,17.6,100.8,35.6,154.4
		c13.6,40.3,13.6,38.1-2.2,33.4c-37.4-10.3-205-39.2-326.4-56.1c-19.4-2.6-35.9-5.1-35.9-5.5c-1.5-1.5,87.6-48,126.9-66.4
		C410.3,223.5,548.2,166,558.4,164.1L558.4,164.1z M204.9,328.4l14.3,4.8c77.7,26.4,273.2,63.8,381,72.6c12.1,1.1,22.4,2.2,22.7,2.2
		c0.4,0.4-9.9,5.9-23.1,12.1c-52.1,26-109.3,57.9-148.9,82.5c-11.7,7.3-22.4,13.2-23.8,13.2c-1.5,0-9.2-1.5-17.2-2.6l-14.7-2.2
		l-36.7-35.9C294.1,412.4,243.4,364,224,345.6L204.9,328.4z M190.3,339.8l51.7,64.5c28.2,35.6,56.8,70.4,63.1,78.1
		c6.2,7.7,11.4,13.9,11,14.3c-1.5,1.1-74.8-13.2-113.7-22c-40-9.2-56.5-13.6-81-21.3l-20.2-6.6v-5.1c0.4-24.6,31.5-61.2,84.3-98.6
		L190.3,339.8L190.3,339.8z M629.6,427.8c1.5,0,3.3,3.3,7.7,13.2c12.5,27.5,51.3,101.6,60.9,115.9c2.9,4.8,8.1,5.1-43.6-3.3
		c-124.3-20.2-164.3-26.8-164.3-27.5c0-0.4,3.7-2.9,8.4-5.5c38.5-21.3,77.4-48.4,111.8-77.4c8.4-7,16.1-13.6,17.6-14.7
		C628.5,427.8,629.2,427.4,629.6,427.8L629.6,427.8z"/>
	
		<radialGradient id="SVGID_3_" cx="-11321.4893" cy="-5920.9404" r="898.12" gradientTransform="matrix(-0.114 -1.712736e-02 3.463960e-02 -0.228 -337.439 -522.6568)" gradientUnits="userSpaceOnUse">
		<stop  offset="0" style="stop-color:#EE352C"/>
		<stop  offset="1" style="stop-color:#A91D22"/>
	</radialGradient>
	<path class="st2" d="M39.5,398.1c0,0-8.1,12.8-0.4,31.9c4.8,11.7,18.7,26,34.5,40.7c0,0,163.2,159.2,183,181.9
		c90.2,104.1,129.4,206.8,133.1,348.4c2.2,90.9-15,170.9-57.9,263.7c-76.3,166.5-237.3,350.2-485.5,554.1l36.3-12.1
		c23.5-17.6,55.4-36.3,130.2-77.4c172.7-94.6,367.1-181.5,605.4-271c343.2-129.1,907.6-280.2,1228.9-329.3l33.4-5.1l-5.1-8.1
		c-29.3-45.5-49.5-73.7-73.7-103.8c-70.4-87.3-155.8-158.1-260.4-216.7c-143.8-80.3-329.7-143-565.1-189.6
		c-44.4-8.8-141.9-25.7-221.1-37.8c-168-26-276.5-44-396.1-64.5c-42.9-7.3-107.1-18.3-149.6-27.5c-22-4.8-64.2-14.7-97.2-26
		C85.8,439.5,47.6,429.3,39.5,398.1L39.5,398.1z M134.2,489.8c0.4-0.4,6.2,1.8,13.9,4.4c13.9,4.8,31.9,10.3,53.2,16.1
		c16.1,4.4,32.2,8.7,48.4,12.8c22,5.5,40.3,10.6,40.7,10.6c2.6,2.6,39.6,121,52.1,166.5c4.8,17.2,8.4,31.9,8.1,31.9
		c-0.4,0.4-4.4-5.9-9.2-14.3c-42.9-75.5-110.7-152.2-189.2-213.8C141.9,496.7,134.2,490.1,134.2,489.8L134.2,489.8z M314.6,539.6
		c1.8,0,9.9,1.1,19.8,3.3c62.3,13.9,174.2,35.2,245.7,47.3c12.1,1.8,21.6,4,21.6,4.8c0,0.7-4.4,3.3-9.9,6.2
		c-12.1,6.2-60.9,35.2-77,46.2c-40.7,27.1-77.4,56.5-103.8,82.9c-10.6,10.6-19.8,19.4-19.8,19.4s-2.2-6.2-4-13.9
		c-13.2-51-40.7-126.5-65.6-179.7c-4-8.4-7.3-16.1-7.3-16.9C314.2,540,314.2,539.6,314.6,539.6L314.6,539.6z M632.2,600.2
		c2.2,0.7,5.9,13.2,13.2,40.7c13.6,53.2,19.8,112.6,17.6,168c-0.7,15.4-1.5,29.7-2.2,31.5l-1.1,3.7l-19.1-6.2
		c-39.2-12.5-103-31.2-157.7-46.6c-31.2-8.4-56.5-16.1-56.5-16.9c0-2.2,45.5-47.7,64.9-64.9C528.4,676.8,628.9,599,632.2,600.2
		L632.2,600.2z M657.5,603.8c1.1-1.1,151.8,24.9,220.4,38.1c51,9.9,125.1,25.3,129.4,27.1c2.2,0.7-5.5,5.1-30.1,16.1
		c-96.8,43.6-168.7,82.9-240.2,130.6c-18.7,12.5-34.5,22.7-34.8,22.7c-0.4,0-0.7-10.6-0.7-23.5c0-69.7-13.9-140.1-39.6-199.5
		C659.3,609.7,657.1,604.2,657.5,603.8z M1047.3,680.8c1.1,1.1-3.7,30.8-8.1,48.4c-13.2,54.6-48.8,135.7-92.4,212
		c-7.7,13.6-14.7,24.6-15.4,24.9c-0.7,0.4-10.6-5.1-22-11.7c-42.5-24.9-90.9-48.4-143.8-70.4c-14.7-6.2-27.5-11.4-27.9-12.1
		c-2.6-2.2,115.5-80.3,177.9-117.7C965.1,724.1,1045.8,679.4,1047.3,680.8L1047.3,680.8z M1075.1,685.2c3.3,0,70,18.3,104.9,28.6
		c86.2,25.7,185.2,62,249.7,91.3l26.8,12.1l-18.7,4.4c-157.7,36.3-292.6,78.1-422.8,130.9c-10.6,4.4-20.2,8.1-20.9,8.1
		c-0.7,0,2.9-8.4,7.7-18.7c39.2-83.2,64.5-170.2,70.8-244.2C1073,690.7,1074,685.2,1075.1,685.2L1075.1,685.2z M410.7,837.8
		c1.1-1.1,52.1,11,79.6,18.7c41.8,11.7,130.5,41.4,130.5,43.6c0,0.4-9.9,8.8-21.6,19.1c-48,40-94.2,82.1-149.6,135.7
		c-16.5,15.8-30.4,28.6-31.2,28.6c-0.7,0-1.1-2.2-0.7-5.1c8.4-61.6,6.6-140.8-5.1-221.1C411.4,846.9,410.3,838.1,410.7,837.8z
		 M1481.8,838.9c0.7,0.7-23.5,38.9-38.9,60.5c-22,31.5-54.3,73.3-127.3,165c-38.5,48.4-81.8,103-96.1,121.4
		c-14.7,18.3-26.8,33.7-27.1,33.7c-0.4,0-5.1-6.6-10.3-14.7c-41.1-61.6-90.2-115.5-148.5-163.9c-11-9.2-23.1-19.1-27.1-22
		c-4-2.9-7.3-5.9-7.3-6.2c0-1.1,62.3-27.9,109.6-46.9c82.9-33.7,195.8-74.1,280.5-100.1C1433.8,851.7,1481.1,838.1,1481.8,838.9
		L1481.8,838.9z M1510.1,846.2c1.5-0.4,10.3,4,20.9,10.3c89.1,51,176.4,116.6,245.3,184.1c19.4,19.1,67.5,68.9,66.7,69.3
		c0,0-16.9,1.5-36.7,2.9c-154.4,11.7-352,44.4-542,90.2c-12.8,2.9-24.2,5.5-24.9,5.5c-0.7,0,13.6-14.3,31.5-31.5
		c111.5-107.4,162.5-175.3,222.6-296.3C1502,862.7,1509.3,847.3,1510.1,846.2C1509.7,846.2,1509.7,846.2,1510.1,846.2L1510.1,846.2z
		 M693.4,929.8c5.1,1.1,52.8,23.5,88.7,41.4c33,16.5,82.5,42.9,85.1,45.1c0.4,0.4-17.2,9.5-38.9,20.2
		c-68.9,34.5-128,67.1-189.6,104.5c-17.6,10.6-32.3,19.4-32.6,19.4c-1.5,0-1.1-1.5,8.8-19.4c33-60.1,59.4-132,74.4-202.1
		C690.8,933.5,692.3,929.8,693.4,929.8L693.4,929.8z M645.7,938.6c1.1,1.1-11.4,46.2-19.1,70.8c-15,46.6-40.3,104.9-64.9,148.9
		c-5.9,10.3-14.7,25.3-19.4,33.7l-9.2,14.7l-20.5-19.8c-23.8-23.1-43.3-37.4-68.2-50.2c-9.9-5.1-17.6-9.5-17.6-10.3
		c0-2.9,62.7-59.8,110.7-100.8C572,995.8,644.6,937.5,645.7,938.6L645.7,938.6z M937.3,1058.5l18,11.7
		c41.1,26.8,89.5,62.3,126.5,93.5c20.9,17.2,61.2,53.5,69.3,62.3l4.4,4.8l-29.7,8.4c-168,46.6-297.8,88-449.2,143.8
		c-16.9,6.2-31.2,11.4-32.3,11.4c-2.2,0-4,1.8,33.7-33c96.8-89.1,182.6-187.4,246.4-283.1L937.3,1058.5L937.3,1058.5z M860.6,1077.6
		c0.7,0.7-49.5,71.5-79.6,111.5c-35.9,47.7-99.7,127.6-143.8,179.7c-18.3,21.6-34.1,39.6-34.8,40c-1.1,0.4-1.5-5.1-1.5-13.6
		c0-44.4-11.4-91.7-31.2-132c-8.4-16.9-9.9-20.9-8.1-22.7c7-6.2,113.7-67.1,181.2-103.4C788.4,1112.8,859.5,1076.9,860.6,1077.6
		L860.6,1077.6z M397.1,1191.3c1.1,0,9.5,4.4,19.1,9.5c23.5,12.8,44.4,27.1,63.1,42.5c0.7,0.7-8.8,8.4-21.3,17.6
		c-34.8,24.9-87.6,64.9-118.4,89.5c-32.3,25.7-33.4,26.4-29.7,20.9c24.2-37,36.3-57.9,49.1-84.7c11.4-23.8,22.7-52.1,30.8-76.6
		C392.7,1199.4,396.4,1191.3,397.1,1191.3L397.1,1191.3z M520.7,1288.1c1.8-0.4,4,2.9,13.9,17.6c20.9,31.2,37,73,41.1,106.7l0.7,7.3
		l-50.2,19.4c-89.9,34.8-172.7,69.3-228.8,95c-15.8,7.3-43.3,20.5-61.2,29.3c-18,9.2-32.6,16.1-32.6,15.8c0-0.4,11.4-8.8,25.3-19.1
		c109.7-79.6,204.6-166.9,275.8-254.1c7.7-9.2,14.7-17.6,15.4-18L520.7,1288.1L520.7,1288.1z M463.8,1302
		c1.5,1.5-40.3,48.8-68.9,77.7c-70.8,72.2-140.8,128.7-227.7,183.7c-11,7-20.9,13.2-22,13.9c-2.6,1.5,0.7-2.2,38.9-43.6
		c24.2-26,42.5-48,63.4-75.2c13.9-18,16.5-20.5,36.7-34.8C338.1,1384.9,462.4,1300.6,463.8,1302z"/>
</g>
<path class="st3" d="M688.9,1380.5h4.5v-35.8h11.8v-4.5h-28.2v4.5h11.8L688.9,1380.5L688.9,1380.5z M716.1,1353.6c0-3.5,0-6.3-0.3-8
	c0.3,1.9,1,3.2,1.2,4.1l13.8,30.7h2.2l13.8-31c0.4-1,0.7-2.2,1.3-3.8c-0.3,3.2-0.3,5.8-0.3,7.7v27.1h4.8v-40.3h-5.8l-12.5,27.8
	c-0.3,1-1.3,2.9-1.9,5.1H732c-0.3-1.3-0.9-2.6-1.8-4.8l-12.5-28.2h-6.5v40.3h4.5v-26.9L716.1,1353.6L716.1,1353.6z"/>
</svg>
