<?xml version="1.0" encoding="utf-8"?>
<!-- Generator: Adobe Illustrator 22.0.0, SVG Export Plug-In . SVG Version: 6.00 Build 0)  -->
<svg version="1.1" id="Capa_1" xmlns="http://www.w3.org/2000/svg" xmlns:xlink="http://www.w3.org/1999/xlink" x="0px" y="0px"
	 viewBox="0 0 283.5 283.5" style="enable-background:new 0 0 283.5 283.5;" xml:space="preserve">
<style type="text/css">
	.st0{fill:#009BDB;}
</style>
<g>
	<path class="st0" d="M141.7,0C63.6,0,0,63.6,0,141.7c0,78.2,63.6,141.7,141.7,141.7c78.2,0,141.7-63.6,141.7-141.7
		C283.5,63.6,219.9,0,141.7,0z M141.7,270.6c-71.2,0-128.8-57.7-128.8-128.8S70.6,12.9,141.7,12.9s128.8,57.7,128.8,128.8
		S212.9,270.6,141.7,270.6z"/>
	<g>
		<path class="st0" d="M46.5,97.8v49.9c0,18.9,8.4,26.9,19.6,26.9c12.5,0,20.5-8.2,20.5-26.9V97.8h11v49.1
			c0,25.9-13.6,36.5-31.9,36.5c-17.2,0-30.2-9.9-30.2-36V97.8H46.5z"/>
		<path class="st0" d="M127.4,97.8V182h-10.9V97.8H127.4z"/>
		<path class="st0" d="M136.7,187l34.9-90.6h8.5l-35,90.6H136.7z"/>
		<path class="st0" d="M235.3,182l-10.7-18.6c-4.4-7.1-7.1-11.7-9.7-16.6h-0.2c-2.4,4.9-4.7,9.4-9.1,16.7L195.3,182h-12.5l25.7-42.6
			l-24.7-41.6h12.6l11.1,19.7c3.1,5.5,5.5,9.7,7.7,14.2h0.4c2.4-5,4.5-8.9,7.6-14.2l11.5-19.7h12.5l-25.6,41l26.2,43.2H235.3z"/>
	</g>
</g>
</svg>
